<?xml version="1.0" encoding="UTF-8"?>
<svg width="316px" height="341px" viewBox="0 0 316 341" version="1.1" xmlns="http://www.w3.org/2000/svg" xmlns:xlink="http://www.w3.org/1999/xlink">
    <!-- Generator: Sketch 52.6 (67491) - http://www.bohemiancoding.com/sketch -->
    <title>Group 10</title>
    <desc>Created with Sketch.</desc>
    <defs>
        <rect id="path-1" x="0" y="0" width="175" height="175" rx="20.5"></rect>
    </defs>
    <g id="Page-1" stroke="none" stroke-width="1" fill="none" fill-rule="evenodd">
        <g id="Group-10">
            <g id="Group-9" transform="translate(75.000000, 0.000000)">
                <g id="Group-7-Copy-3">
                    <mask id="mask-2" fill="white">
                        <use xlink:href="#path-1"></use>
                    </mask>
                    <use id="Mask-Copy" fill="#D8D8D8" xlink:href="#path-1"></use>
                    <g id="Group-7-Copy" mask="url(#mask-2)" stroke="#FFFFFF" stroke-width="6">
                        <g transform="translate(-13.000000, -30.000000)">
                            <rect id="Rectangle" fill="#FF0000" x="0" y="0" width="100" height="199"></rect>
                            <rect id="Rectangle-Copy-8" fill="#0FC400" x="99" y="0" width="100" height="199"></rect>
                            <polygon id="Path-Copy" fill="#FFC600" points="2.84217094e-14 174 100 116 200 174 200 234.765625 2.84217094e-14 234.765625"></polygon>
                        </g>
                    </g>
                </g>
                <g id="Oval-Copy-3" transform="translate(99.000000, 21.000000)">
                    <g>
                        <circle id="Oval" fill="#0FC400" cx="32.4" cy="32.4" r="32.4"></circle>
                        <g id="Rectangle" transform="translate(31.636325, 28.581623) rotate(45.000000) translate(-31.636325, -28.581623) translate(19.756325, 6.981623)" fill="#FFFFFF">
                            <rect x="1.13686838e-13" y="32.4" width="23.76" height="10.8"></rect>
                            <rect x="12.96" y="5.68434189e-14" width="10.8" height="43.2"></rect>
                        </g>
                    </g>
                </g>
                <g id="Oval" transform="translate(9.000000, 25.000000)">
                    <circle fill="#FF0000" cx="32.4" cy="32.4" r="32.4"></circle>
                    <g id="Rectangle" transform="translate(32.400000, 32.400000) rotate(45.000000) translate(-32.400000, -32.400000) translate(10.800000, 10.800000)" fill="#FFFFFF">
                        <rect x="0" y="16.2" width="43.2" height="10.8"></rect>
                        <rect x="16.2" y="0" width="10.8" height="43.2"></rect>
                    </g>
                </g>
                <g id="Oval" transform="translate(52.000000, 102.000000)">
                    <circle fill="#FFC600" cx="34.3938462" cy="34.3938462" r="34.3938462"></circle>
                    <polygon id="Path" stroke="#FFFFFF" stroke-width="1.08" fill="#FFFFFF" points="29.4961625 47.8028603 38.1358966 47.8028603 38.1358966 56.277504 29.4961625 56.277504"></polygon>
                    <path d="M20.6363077,27.3499865 C20.6729946,25.368891 21.0123439,23.5529141 21.6543655,21.9020012 C22.2963872,20.2510884 23.1952041,18.8203187 24.3508431,17.6096492 C25.5064821,16.3989798 26.9005654,15.4543049 28.5331348,14.7755963 C30.1657042,14.0968877 31.9908527,13.7575385 34.0086351,13.7575385 C36.6134087,13.7575385 38.7870781,14.1152309 40.5297083,14.8306265 C42.2723386,15.546022 43.6755934,16.4356673 44.7395151,17.4995889 C45.8034367,18.5635106 46.5646796,19.7099606 47.0232665,20.9389735 C47.4818534,22.1679865 47.7111434,23.3144365 47.7111434,24.3783582 C47.7111434,26.1393319 47.4818534,27.5884448 47.0232665,28.7257403 C46.5646796,29.8630358 45.9960403,30.8352255 45.3173317,31.6423385 C44.6386231,32.4494514 43.8865518,33.1373215 43.0610954,33.7059692 C42.2356389,34.274617 41.4560529,34.8432562 40.7223138,35.411904 C39.9885748,35.9805518 39.3373912,36.6317354 38.7687434,37.3654745 C38.2000956,38.0992135 37.8424032,39.0163736 37.6956554,40.1169822 L37.6956554,42.208128 L30.2665846,42.208128 L30.2665846,39.7317711 C30.3766455,38.1542321 30.6793083,36.8335216 31.1745822,35.7696 C31.669856,34.7056784 32.2476669,33.7976899 32.908032,33.0456074 C33.5683971,32.2935249 34.2654388,31.6423412 34.9991778,31.0920369 C35.7329169,30.5417326 36.4116153,29.9914366 37.0352935,29.4411323 C37.6589717,28.890828 38.1634098,28.2855024 38.5486228,27.6251372 C38.9338358,26.9647721 39.1080962,26.139328 39.0714092,25.1487803 C39.0714092,23.4611805 38.6586872,22.2138428 37.8332308,21.4067298 C37.0077743,20.5996169 35.8613243,20.1960665 34.3938462,20.1960665 C33.4032984,20.1960665 32.5503396,20.3886701 31.834944,20.7738831 C31.1195484,21.1590961 30.532566,21.6727057 30.0739791,22.3147274 C29.6153922,22.9567491 29.2760429,23.7088203 29.0559212,24.5709637 C28.8357995,25.4331071 28.7257403,26.3594387 28.7257403,27.3499865 L20.6363077,27.3499865 Z" id="Path" stroke="#FFFFFF" stroke-width="2.16" fill="#FFFFFF"></path>
                </g>
            </g>
            <path d="M0.323730469,236.958984 L8.70263672,236.958984 L8.70263672,232.662109 C8.70263672,227.863908 9.21288552,224.283215 10.2333984,221.919922 C11.2539114,219.556629 13.1337754,217.632006 15.8730469,216.145996 C18.6123184,214.659986 22.0766392,213.916992 26.2661133,213.916992 C30.5630098,213.916992 34.7703245,214.561517 38.8881836,215.850586 L36.847168,226.37793 C34.4480674,225.80501 32.1385202,225.518555 29.918457,225.518555 C27.7342013,225.518555 26.167648,226.028803 25.21875,227.049316 C24.269852,228.069829 23.7954102,230.030259 23.7954102,232.930664 L23.7954102,236.958984 L35.074707,236.958984 L35.074707,248.829102 L23.7954102,248.829102 L23.7954102,294 L8.70263672,294 L8.70263672,248.829102 L0.323730469,248.829102 L0.323730469,236.958984 Z M54.840332,254.361328 L41.144043,251.890625 C42.6837642,246.376275 45.3334773,242.294284 49.0932617,239.644531 C52.8530461,236.994778 58.4389278,235.669922 65.8510742,235.669922 C72.5828787,235.669922 77.5958494,236.466626 80.8901367,238.060059 C84.184424,239.653491 86.502923,241.676583 87.8457031,244.129395 C89.1884833,246.582206 89.8598633,251.084928 89.8598633,257.637695 L89.6987305,275.254883 C89.6987305,280.267929 89.9404273,283.964995 90.4238281,286.346191 C90.907229,288.727388 91.8113541,291.278632 93.1362305,294 L78.2045898,294 C77.8107077,292.997391 77.3273141,291.511403 76.7543945,289.541992 C76.5037422,288.646805 76.3247076,288.055991 76.2172852,287.769531 C73.6391473,290.276054 70.8820134,292.155918 67.9458008,293.40918 C65.0095882,294.662441 61.8764815,295.289062 58.5463867,295.289062 C52.6739615,295.289062 48.0459154,293.695654 44.6621094,290.508789 C41.2783034,287.321924 39.5864258,283.293644 39.5864258,278.423828 C39.5864258,275.201156 40.3562749,272.327649 41.8959961,269.803223 C43.4357173,267.278796 45.5930851,265.345222 48.3681641,264.002441 C51.143243,262.659661 55.1446679,261.486984 60.3725586,260.484375 C67.4266303,259.159499 72.3142768,257.924159 75.0356445,256.77832 L75.0356445,255.274414 C75.0356445,252.374009 74.3195059,250.306159 72.887207,249.070801 C71.4549082,247.835443 68.7514847,247.217773 64.7768555,247.217773 C62.0912952,247.217773 59.9965896,247.745926 58.4926758,248.802246 C56.988762,249.858566 55.7713263,251.711575 54.840332,254.361328 Z M75.0356445,266.607422 C73.1020411,267.251956 70.0405483,268.021805 65.8510742,268.916992 C61.6616001,269.812179 58.9223697,270.689449 57.6333008,271.548828 C55.6638899,272.945319 54.6791992,274.717763 54.6791992,276.866211 C54.6791992,278.978852 55.4669518,280.805005 57.0424805,282.344727 C58.6180092,283.884448 60.6231975,284.654297 63.0581055,284.654297 C65.7794732,284.654297 68.3754759,283.759124 70.8461914,281.96875 C72.6723724,280.608066 73.8719047,278.943044 74.4448242,276.973633 C74.8387064,275.684564 75.0356445,273.231789 75.0356445,269.615234 L75.0356445,266.607422 Z M154.474121,253.824219 L139.596191,256.509766 C139.094887,253.537746 137.958017,251.299812 136.185547,249.795898 C134.413077,248.291985 132.112482,247.540039 129.283691,247.540039 C125.523907,247.540039 122.525076,248.83804 120.287109,251.434082 C118.049142,254.030124 116.930176,258.371714 116.930176,264.458984 C116.930176,271.226596 118.067046,276.006822 120.34082,278.799805 C122.614595,281.592787 125.667136,282.989258 129.498535,282.989258 C132.363133,282.989258 134.708487,282.17465 136.534668,280.54541 C138.360849,278.91617 139.649899,276.114278 140.401855,272.139648 L155.226074,274.664062 C153.686353,281.467482 150.732281,286.605777 146.36377,290.079102 C141.995258,293.552426 136.140824,295.289062 128.800293,295.289062 C120.457152,295.289062 113.806014,292.657253 108.84668,287.393555 C103.887345,282.129856 101.407715,274.843146 101.407715,265.533203 C101.407715,256.115838 103.896297,248.784369 108.873535,243.538574 C113.850774,238.29278 120.582477,235.669922 129.068848,235.669922 C136.015497,235.669922 141.538716,237.164861 145.638672,240.154785 C149.738627,243.144709 152.683748,247.701141 154.474121,253.824219 Z M192.071777,236.958984 L192.071777,248.990234 L181.759277,248.990234 L181.759277,271.978516 C181.759277,276.633487 181.857746,279.345862 182.054688,280.115723 C182.251629,280.885583 182.699215,281.521156 183.397461,282.022461 C184.095707,282.523766 184.946121,282.774414 185.94873,282.774414 C187.345222,282.774414 189.368314,282.29102 192.018066,281.324219 L193.307129,293.033203 C189.797997,294.537117 185.823427,295.289062 181.383301,295.289062 C178.661933,295.289062 176.209158,294.832524 174.024902,293.919434 C171.840647,293.006343 170.238286,291.824714 169.217773,290.374512 C168.197261,288.924309 167.490074,286.96388 167.096191,284.493164 C166.773924,282.738598 166.612793,279.193712 166.612793,273.858398 L166.612793,248.990234 L159.684082,248.990234 L159.684082,236.958984 L166.612793,236.958984 L166.612793,225.625977 L181.759277,216.817383 L181.759277,236.958984 L192.071777,236.958984 Z M202.54541,229.224609 L202.54541,215.259766 L217.638184,215.259766 L217.638184,229.224609 L202.54541,229.224609 Z M202.54541,294 L202.54541,236.958984 L217.638184,236.958984 L217.638184,294 L202.54541,294 Z M233.106934,294 L233.106934,278.907227 L248.199707,278.907227 L248.199707,294 L233.106934,294 Z M257.062012,236.958984 L265.440918,236.958984 L265.440918,232.662109 C265.440918,227.863908 265.951167,224.283215 266.97168,221.919922 C267.992193,219.556629 269.872057,217.632006 272.611328,216.145996 C275.3506,214.659986 278.81492,213.916992 283.004395,213.916992 C287.301291,213.916992 291.508606,214.561517 295.626465,215.850586 L293.585449,226.37793 C291.186349,225.80501 288.876801,225.518555 286.656738,225.518555 C284.472483,225.518555 282.905929,226.028803 281.957031,227.049316 C281.008133,228.069829 280.533691,230.030259 280.533691,232.930664 L280.533691,236.958984 L291.812988,236.958984 L291.812988,248.829102 L280.533691,248.829102 L280.533691,294 L265.440918,294 L265.440918,248.829102 L257.062012,248.829102 L257.062012,236.958984 Z M300.299316,229.224609 L300.299316,215.259766 L315.39209,215.259766 L315.39209,229.224609 L300.299316,229.224609 Z M300.299316,294 L300.299316,236.958984 L315.39209,236.958984 L315.39209,294 L300.299316,294 Z" id="facti.fi" fill="#323232"></path>
            <path d="M81.2734375,340 C81.1562494,339.667967 81.0813804,339.176436 81.0488281,338.525391 C80.6386698,339.059247 80.1162141,339.471027 79.4814453,339.760742 C78.8466765,340.050457 78.1744827,340.195312 77.4648438,340.195312 C76.4492137,340.195312 75.6272818,339.912112 74.9990234,339.345703 C74.3707651,338.779294 74.0566406,338.063155 74.0566406,337.197266 C74.0566406,336.168615 74.4846962,335.354821 75.3408203,334.755859 C76.1969444,334.156898 77.3899663,333.857422 78.9199219,333.857422 L81.0390625,333.857422 L81.0390625,332.65625 C81.0390625,331.901038 80.8063174,331.306968 80.3408203,330.874023 C79.8753232,330.441079 79.196619,330.224609 78.3046875,330.224609 C77.4908813,330.224609 76.81706,330.432941 76.2832031,330.849609 C75.7493463,331.266278 75.4824219,331.767575 75.4824219,332.353516 L74.3105469,332.34375 C74.3105469,331.503902 74.701168,330.77637 75.4824219,330.161133 C76.2636758,329.545895 77.2239526,329.238281 78.3632812,329.238281 C79.5416726,329.238281 80.4710252,329.532875 81.1513672,330.12207 C81.8317091,330.711266 82.1816405,331.533198 82.2011719,332.587891 L82.2011719,337.587891 C82.2011719,338.610031 82.3085927,339.374997 82.5234375,339.882812 L82.5234375,340 L81.2734375,340 Z M77.6015625,339.160156 C78.3828164,339.160156 79.0810516,338.971356 79.6962891,338.59375 C80.3115265,338.216144 80.7591132,337.711592 81.0390625,337.080078 L81.0390625,334.755859 L78.9492188,334.755859 C77.7838483,334.76888 76.8723991,334.982094 76.2148438,335.395508 C75.5572884,335.808921 75.2285156,336.37695 75.2285156,337.099609 C75.2285156,337.69206 75.44824,338.183592 75.8876953,338.574219 C76.3271506,338.964846 76.898434,339.160156 77.6015625,339.160156 Z M100.521484,335.566406 C100.358723,337.06381 99.8232467,338.209631 98.9150391,339.003906 C98.0068314,339.798181 96.7975336,340.195312 95.2871094,340.195312 C94.2324166,340.195312 93.2998087,339.931643 92.4892578,339.404297 C91.6787069,338.87695 91.0520855,338.129888 90.609375,337.163086 C90.1666645,336.196284 89.9420573,335.091152 89.9355469,333.847656 L89.9355469,332.001953 C89.9355469,330.738926 90.1568988,329.619146 90.5996094,328.642578 C91.0423199,327.666011 91.6787068,326.912438 92.5087891,326.381836 C93.3388713,325.851234 94.2942654,325.585938 95.375,325.585938 C96.8984451,325.585938 98.1012326,325.997717 98.9833984,326.821289 C99.8655643,327.644861 100.378254,328.782545 100.521484,330.234375 L99.3105469,330.234375 C99.0110662,327.818998 97.6992304,326.611328 95.375,326.611328 C94.0859311,326.611328 93.0589231,327.093094 92.2939453,328.056641 C91.5289675,329.020187 91.1464844,330.351554 91.1464844,332.050781 L91.1464844,333.789062 C91.1464844,335.429696 91.519202,336.738276 92.2646484,337.714844 C93.0100949,338.691411 94.0175718,339.179688 95.2871094,339.179688 C96.5436261,339.179688 97.4908822,338.878584 98.1289062,338.276367 C98.7669303,337.674151 99.1608065,336.770839 99.3105469,335.566406 L100.521484,335.566406 Z M104.330078,331.220703 C104.714195,330.58919 105.205726,330.100913 105.804688,329.755859 C106.403649,329.410806 107.057939,329.238281 107.767578,329.238281 C108.900396,329.238281 109.743487,329.557288 110.296875,330.195312 C110.850263,330.833337 111.130208,331.790358 111.136719,333.066406 L111.136719,340 L109.974609,340 L109.974609,333.056641 C109.968099,332.112625 109.767906,331.409508 109.374023,330.947266 C108.980141,330.485024 108.350265,330.253906 107.484375,330.253906 C106.761715,330.253906 106.122073,330.480141 105.56543,330.932617 C105.008786,331.385093 104.597007,331.995439 104.330078,332.763672 L104.330078,340 L103.167969,340 L103.167969,325 L104.330078,325 L104.330078,331.220703 Z M119.027344,330.429688 C118.779947,330.384114 118.516277,330.361328 118.236328,330.361328 C117.507158,330.361328 116.890302,330.564777 116.385742,330.97168 C115.881182,331.378583 115.521485,331.969397 115.306641,332.744141 L115.306641,340 L114.144531,340 L114.144531,329.433594 L115.287109,329.433594 L115.306641,331.113281 C115.925133,329.863275 116.917962,329.238281 118.285156,329.238281 C118.610679,329.238281 118.867838,329.280599 119.056641,329.365234 L119.027344,330.429688 Z M120.033203,334.560547 C120.033203,333.544917 120.230141,332.630212 120.624023,331.816406 C121.017906,331.0026 121.574541,330.369468 122.293945,329.916992 C123.01335,329.464516 123.828771,329.238281 124.740234,329.238281 C126.146491,329.238281 127.285803,329.73144 128.158203,330.717773 C129.030603,331.704106 129.466797,333.01106 129.466797,334.638672 L129.466797,334.882812 C129.466797,335.904953 129.269859,336.82454 128.875977,337.641602 C128.482094,338.458663 127.927087,339.088539 127.210938,339.53125 C126.494788,339.973961 125.677739,340.195312 124.759766,340.195312 C123.360019,340.195312 122.222335,339.702153 121.34668,338.71582 C120.471024,337.729487 120.033203,336.422534 120.033203,334.794922 L120.033203,334.560547 Z M121.205078,334.882812 C121.205078,336.14584 121.532223,337.182613 122.186523,337.993164 C122.840824,338.803715 123.698562,339.208984 124.759766,339.208984 C125.814458,339.208984 126.668942,338.803715 127.323242,337.993164 C127.977542,337.182613 128.304688,336.113288 128.304688,334.785156 L128.304688,334.560547 C128.304688,333.753251 128.154949,333.014326 127.855469,332.34375 C127.555988,331.673174 127.13607,331.153973 126.595703,330.786133 C126.055336,330.418292 125.436852,330.234375 124.740234,330.234375 C123.698562,330.234375 122.848962,330.6429 122.191406,331.459961 C121.533851,332.277022 121.205078,333.346348 121.205078,334.667969 L121.205078,334.882812 Z M132.943359,329.433594 L132.982422,331.152344 C133.373049,330.51432 133.861325,330.035809 134.447266,329.716797 C135.033206,329.397785 135.684241,329.238281 136.400391,329.238281 C138.067066,329.238281 139.124998,329.921868 139.574219,331.289062 C139.951825,330.631507 140.456377,330.125327 141.087891,329.770508 C141.719404,329.415688 142.416012,329.238281 143.177734,329.238281 C145.443371,329.238281 146.598958,330.475248 146.644531,332.949219 L146.644531,340 L145.472656,340 L145.472656,333.037109 C145.466146,332.093094 145.262697,331.393231 144.862305,330.9375 C144.461912,330.481769 143.809249,330.253906 142.904297,330.253906 C142.064449,330.266927 141.354821,330.538734 140.775391,331.069336 C140.195961,331.599938 139.873698,332.24609 139.808594,333.007812 L139.808594,340 L138.636719,340 L138.636719,332.949219 C138.630208,332.044266 138.416994,331.368817 137.99707,330.922852 C137.577146,330.476886 136.930994,330.253906 136.058594,330.253906 C135.322913,330.253906 134.691409,330.463865 134.164062,330.883789 C133.636716,331.303713 133.246095,331.927079 132.992188,332.753906 L132.992188,340 L131.820312,340 L131.820312,329.433594 L132.943359,329.433594 Z M153.695312,340.195312 C152.796871,340.195312 151.984704,339.973961 151.258789,339.53125 C150.532874,339.088539 149.968101,338.471684 149.564453,337.680664 C149.160805,336.889644 148.958984,336.002609 148.958984,335.019531 L148.958984,334.599609 C148.958984,333.583979 149.155923,332.669275 149.549805,331.855469 C149.943687,331.041663 150.492184,330.402021 151.195312,329.936523 C151.898441,329.471026 152.660152,329.238281 153.480469,329.238281 C154.763027,329.238281 155.78027,329.676102 156.532227,330.551758 C157.284183,331.427413 157.660156,332.62369 157.660156,334.140625 L157.660156,334.794922 L150.121094,334.794922 L150.121094,335.019531 C150.121094,336.217454 150.464515,337.215165 151.151367,338.012695 C151.83822,338.810225 152.702469,339.208984 153.744141,339.208984 C154.369144,339.208984 154.920896,339.095053 155.399414,338.867188 C155.877932,338.639322 156.312498,338.274742 156.703125,337.773438 L157.435547,338.330078 C156.576168,339.573574 155.329435,340.195312 153.695312,340.195312 Z M153.480469,330.234375 C152.601558,330.234375 151.861006,330.556637 151.258789,331.201172 C150.656573,331.845706 150.290365,332.711583 150.160156,333.798828 L156.498047,333.798828 L156.498047,333.671875 C156.465495,332.656245 156.175784,331.82943 155.628906,331.191406 C155.082029,330.553382 154.36589,330.234375 153.480469,330.234375 Z M172.923828,333.183594 L166.273438,333.183594 L166.273438,338.984375 L173.919922,338.984375 L173.919922,340 L165.072266,340 L165.072266,325.78125 L173.871094,325.78125 L173.871094,326.806641 L166.273438,326.806641 L166.273438,332.167969 L172.923828,332.167969 L172.923828,333.183594 Z M179.496094,333.720703 L182.347656,329.433594 L183.734375,329.433594 L180.150391,334.619141 L183.890625,340 L182.513672,340 L179.505859,335.527344 L176.498047,340 L175.121094,340 L178.851562,334.619141 L175.267578,329.433594 L176.644531,329.433594 L179.496094,333.720703 Z M187.71875,326.728516 L187.71875,329.433594 L189.90625,329.433594 L189.90625,330.390625 L187.71875,330.390625 L187.71875,337.431641 C187.71875,338.017581 187.824543,338.453775 188.036133,338.740234 C188.247722,339.026694 188.600909,339.169922 189.095703,339.169922 C189.291017,339.169922 189.606769,339.13737 190.042969,339.072266 L190.091797,340.029297 C189.785806,340.139975 189.369143,340.195312 188.841797,340.195312 C188.041012,340.195312 187.458335,339.962567 187.09375,339.49707 C186.729165,339.031573 186.546875,338.346359 186.546875,337.441406 L186.546875,330.390625 L184.603516,330.390625 L184.603516,329.433594 L186.546875,329.433594 L186.546875,326.728516 L187.71875,326.728516 Z M196.419922,340.195312 C195.52148,340.195312 194.709314,339.973961 193.983398,339.53125 C193.257483,339.088539 192.69271,338.471684 192.289062,337.680664 C191.885415,336.889644 191.683594,336.002609 191.683594,335.019531 L191.683594,334.599609 C191.683594,333.583979 191.880532,332.669275 192.274414,331.855469 C192.668296,331.041663 193.216793,330.402021 193.919922,329.936523 C194.62305,329.471026 195.384762,329.238281 196.205078,329.238281 C197.487637,329.238281 198.504879,329.676102 199.256836,330.551758 C200.008793,331.427413 200.384766,332.62369 200.384766,334.140625 L200.384766,334.794922 L192.845703,334.794922 L192.845703,335.019531 C192.845703,336.217454 193.189124,337.215165 193.875977,338.012695 C194.562829,338.810225 195.427078,339.208984 196.46875,339.208984 C197.093753,339.208984 197.645505,339.095053 198.124023,338.867188 C198.602541,338.639322 199.037107,338.274742 199.427734,337.773438 L200.160156,338.330078 C199.300777,339.573574 198.054045,340.195312 196.419922,340.195312 Z M196.205078,330.234375 C195.326167,330.234375 194.585615,330.556637 193.983398,331.201172 C193.381182,331.845706 193.014975,332.711583 192.884766,333.798828 L199.222656,333.798828 L199.222656,333.671875 C199.190104,332.656245 198.900393,331.82943 198.353516,331.191406 C197.806638,330.553382 197.090499,330.234375 196.205078,330.234375 Z M203.773438,329.433594 L203.8125,331.240234 C204.209637,330.589189 204.704424,330.092775 205.296875,329.750977 C205.889326,329.409178 206.543616,329.238281 207.259766,329.238281 C208.392584,329.238281 209.235674,329.557288 209.789062,330.195312 C210.342451,330.833337 210.622396,331.790358 210.628906,333.066406 L210.628906,340 L209.466797,340 L209.466797,333.056641 C209.460286,332.112625 209.260093,331.409508 208.866211,330.947266 C208.472329,330.485024 207.842452,330.253906 206.976562,330.253906 C206.253903,330.253906 205.614261,330.480141 205.057617,330.932617 C204.500974,331.385093 204.089194,331.995439 203.822266,332.763672 L203.822266,340 L202.660156,340 L202.660156,329.433594 L203.773438,329.433594 Z M219.974609,337.314453 C219.974609,336.735023 219.741864,336.269533 219.276367,335.917969 C218.81087,335.566404 218.10938,335.291342 217.171875,335.092773 C216.23437,334.894205 215.506839,334.666342 214.989258,334.40918 C214.471677,334.152017 214.087566,333.837892 213.836914,333.466797 C213.586262,333.095701 213.460938,332.646487 213.460938,332.119141 C213.460938,331.285803 213.809241,330.597333 214.505859,330.053711 C215.202477,329.510088 216.094396,329.238281 217.181641,329.238281 C218.360032,329.238281 219.30566,329.529619 220.018555,330.112305 C220.731449,330.69499 221.087891,331.455073 221.087891,332.392578 L219.916016,332.392578 C219.916016,331.774085 219.657229,331.259768 219.139648,330.849609 C218.622068,330.439451 217.969405,330.234375 217.181641,330.234375 C216.413408,330.234375 215.796552,330.405272 215.331055,330.74707 C214.865558,331.088869 214.632812,331.5332 214.632812,332.080078 C214.632812,332.607425 214.826495,333.015949 215.213867,333.305664 C215.601239,333.595379 216.307612,333.860676 217.333008,334.101562 C218.358404,334.342449 219.126625,334.599608 219.637695,334.873047 C220.148766,335.146486 220.527994,335.475258 220.775391,335.859375 C221.022788,336.243492 221.146484,336.708982 221.146484,337.255859 C221.146484,338.147791 220.786787,338.860674 220.067383,339.394531 C219.347978,339.928388 218.40886,340.195312 217.25,340.195312 C216.019525,340.195312 215.021814,339.897464 214.256836,339.301758 C213.491858,338.706052 213.109375,337.952479 213.109375,337.041016 L214.28125,337.041016 C214.326823,337.724613 214.614906,338.256834 215.145508,338.637695 C215.676109,339.018557 216.3776,339.208984 217.25,339.208984 C218.063806,339.208984 218.721352,339.02995 219.222656,338.671875 C219.723961,338.3138 219.974609,337.861331 219.974609,337.314453 Z M225.082031,340 L223.910156,340 L223.910156,329.433594 L225.082031,329.433594 L225.082031,340 Z M223.705078,326.376953 C223.705078,326.155598 223.776692,325.968425 223.919922,325.81543 C224.063152,325.662434 224.258462,325.585938 224.505859,325.585938 C224.753256,325.585938 224.950195,325.662434 225.09668,325.81543 C225.243165,325.968425 225.316406,326.155598 225.316406,326.376953 C225.316406,326.598308 225.243165,326.783853 225.09668,326.933594 C224.950195,327.083334 224.753256,327.158203 224.505859,327.158203 C224.258462,327.158203 224.063152,327.083334 223.919922,326.933594 C223.776692,326.783853 223.705078,326.598308 223.705078,326.376953 Z M227.611328,334.560547 C227.611328,333.544917 227.808266,332.630212 228.202148,331.816406 C228.596031,331.0026 229.152666,330.369468 229.87207,329.916992 C230.591475,329.464516 231.406896,329.238281 232.318359,329.238281 C233.724616,329.238281 234.863928,329.73144 235.736328,330.717773 C236.608728,331.704106 237.044922,333.01106 237.044922,334.638672 L237.044922,334.882812 C237.044922,335.904953 236.847984,336.82454 236.454102,337.641602 C236.060219,338.458663 235.505212,339.088539 234.789062,339.53125 C234.072913,339.973961 233.255864,340.195312 232.337891,340.195312 C230.938144,340.195312 229.80046,339.702153 228.924805,338.71582 C228.049149,337.729487 227.611328,336.422534 227.611328,334.794922 L227.611328,334.560547 Z M228.783203,334.882812 C228.783203,336.14584 229.110348,337.182613 229.764648,337.993164 C230.418949,338.803715 231.276687,339.208984 232.337891,339.208984 C233.392583,339.208984 234.247067,338.803715 234.901367,337.993164 C235.555667,337.182613 235.882812,336.113288 235.882812,334.785156 L235.882812,334.560547 C235.882812,333.753251 235.733074,333.014326 235.433594,332.34375 C235.134113,331.673174 234.714195,331.153973 234.173828,330.786133 C233.633461,330.418292 233.014977,330.234375 232.318359,330.234375 C231.276687,330.234375 230.427087,330.6429 229.769531,331.459961 C229.111976,332.277022 228.783203,333.346348 228.783203,334.667969 L228.783203,334.882812 Z M240.570312,329.433594 L240.609375,331.240234 C241.006512,330.589189 241.501299,330.092775 242.09375,329.750977 C242.686201,329.409178 243.340491,329.238281 244.056641,329.238281 C245.189459,329.238281 246.032549,329.557288 246.585938,330.195312 C247.139326,330.833337 247.419271,331.790358 247.425781,333.066406 L247.425781,340 L246.263672,340 L246.263672,333.056641 C246.257161,332.112625 246.056968,331.409508 245.663086,330.947266 C245.269204,330.485024 244.639327,330.253906 243.773438,330.253906 C243.050778,330.253906 242.411136,330.480141 241.854492,330.932617 C241.297849,331.385093 240.886069,331.995439 240.619141,332.763672 L240.619141,340 L239.457031,340 L239.457031,329.433594 L240.570312,329.433594 Z" id="a-Chrome-Extension-Copy-2" fill="#323232"></path>
        </g>
    </g>
</svg>