 <svg xmlns="http://www.w3.org/2000/svg" xmlns:xlink="http://www.w3.org/1999/xlink" width="316px" height="175px" viewBox="0 0 316 175" version="1.1">
    <!-- Generator: Sketch 52.6 (67491) - http://www.bohemiancoding.com/sketch -->
    <title>Group 10</title>
    <desc>Created with Sketch.</desc>
    <defs>
        <rect id="path-1" x="0" y="0" width="175" height="175" rx="20.5"/>
    </defs>
    <g id="Page-1" stroke="none" stroke-width="1" fill="none" fill-rule="evenodd">
        <g id="Group-10">
            <g id="Group-9" transform="translate(68.000000, 0.000000)">
                <g id="Group-7-Copy-3">
                    <mask id="mask-2" fill="white">
                        <use xlink:href="#path-1"/>
                    </mask>
                    <use id="Mask-Copy" fill="#D8D8D8" xlink:href="#path-1"/>
                    <g id="Group-7-Copy" mask="url(#mask-2)" stroke="#FFFFFF" stroke-width="6">
                        <g transform="translate(-13.000000, -30.000000)">
                            <rect id="Rectangle" fill="#FF0000" x="0" y="0" width="100" height="199"/>
                            <rect id="Rectangle-Copy-8" fill="#0FC400" x="99" y="0" width="100" height="199"/>
                            <polygon id="Path-Copy" fill="#FFC600" points="2.84217094e-14 174 100 116 200 174 200 234.765625 2.84217094e-14 234.765625"/>
                        </g>
                    </g>
                </g>
                <g id="Oval-Copy-3" transform="translate(99.000000, 21.000000)">
                    <g>
                        <circle id="Oval" fill="#0FC400" cx="32.4" cy="32.4" r="32.4"/>
                        <g id="Rectangle" transform="translate(31.636325, 28.581623) rotate(45.000000) translate(-31.636325, -28.581623) translate(19.756325, 6.981623)" fill="#FFFFFF">
                            <rect x="1.13686838e-13" y="32.4" width="23.76" height="10.8"/>
                            <rect x="12.96" y="5.68434189e-14" width="10.8" height="43.2"/>
                        </g>
                    </g>
                </g>
                <g id="Oval" transform="translate(9.000000, 25.000000)">
                    <circle fill="#FF0000" cx="32.4" cy="32.4" r="32.4"/>
                    <g id="Rectangle" transform="translate(32.400000, 32.400000) rotate(45.000000) translate(-32.400000, -32.400000) translate(10.800000, 10.800000)" fill="#FFFFFF">
                        <rect x="0" y="16.2" width="43.2" height="10.8"/>
                        <rect x="16.2" y="0" width="10.8" height="43.2"/>
                    </g>
                </g>
                <g id="Oval" transform="translate(52.000000, 102.000000)">
                    <circle fill="#FFC600" cx="34.3938462" cy="34.3938462" r="34.3938462"/>
                    <polygon id="Path" stroke="#FFFFFF" stroke-width="1.08" fill="#FFFFFF" points="29.4961625 47.8028603 38.1358966 47.8028603 38.1358966 56.277504 29.4961625 56.277504"/>
                    <path d="M20.6363077,27.3499865 C20.6729946,25.368891 21.0123439,23.5529141 21.6543655,21.9020012 C22.2963872,20.2510884 23.1952041,18.8203187 24.3508431,17.6096492 C25.5064821,16.3989798 26.9005654,15.4543049 28.5331348,14.7755963 C30.1657042,14.0968877 31.9908527,13.7575385 34.0086351,13.7575385 C36.6134087,13.7575385 38.7870781,14.1152309 40.5297083,14.8306265 C42.2723386,15.546022 43.6755934,16.4356673 44.7395151,17.4995889 C45.8034367,18.5635106 46.5646796,19.7099606 47.0232665,20.9389735 C47.4818534,22.1679865 47.7111434,23.3144365 47.7111434,24.3783582 C47.7111434,26.1393319 47.4818534,27.5884448 47.0232665,28.7257403 C46.5646796,29.8630358 45.9960403,30.8352255 45.3173317,31.6423385 C44.6386231,32.4494514 43.8865518,33.1373215 43.0610954,33.7059692 C42.2356389,34.274617 41.4560529,34.8432562 40.7223138,35.411904 C39.9885748,35.9805518 39.3373912,36.6317354 38.7687434,37.3654745 C38.2000956,38.0992135 37.8424032,39.0163736 37.6956554,40.1169822 L37.6956554,42.208128 L30.2665846,42.208128 L30.2665846,39.7317711 C30.3766455,38.1542321 30.6793083,36.8335216 31.1745822,35.7696 C31.669856,34.7056784 32.2476669,33.7976899 32.908032,33.0456074 C33.5683971,32.2935249 34.2654388,31.6423412 34.9991778,31.0920369 C35.7329169,30.5417326 36.4116153,29.9914366 37.0352935,29.4411323 C37.6589717,28.890828 38.1634098,28.2855024 38.5486228,27.6251372 C38.9338358,26.9647721 39.1080962,26.139328 39.0714092,25.1487803 C39.0714092,23.4611805 38.6586872,22.2138428 37.8332308,21.4067298 C37.0077743,20.5996169 35.8613243,20.1960665 34.3938462,20.1960665 C33.4032984,20.1960665 32.5503396,20.3886701 31.834944,20.7738831 C31.1195484,21.1590961 30.532566,21.6727057 30.0739791,22.3147274 C29.6153922,22.9567491 29.2760429,23.7088203 29.0559212,24.5709637 C28.8357995,25.4331071 28.7257403,26.3594387 28.7257403,27.3499865 L20.6363077,27.3499865 Z" id="Path" stroke="#FFFFFF" stroke-width="2.16" fill="#FFFFFF"/>
                </g>
            </g>
        </g>
    </g>
</svg>    
